<svg id="Layer_1" data-name="Layer 1" xmlns="http://www.w3.org/2000/svg" viewBox="0 0 47.78 32.51"><defs><style>.cls-1{fill:#28b485;}.cls-2{fill:#218e5f;}.cls-3{fill:#219ed9;}.cls-4{fill:#5dc2ec;}.cls-5{fill:#444;}</style></defs><title>tinda-logo</title><path class="cls-1" d="M6.05,9.8V34l11.16-4.26c.36-1.27.7-2.54,1.05-3.79l.41-1.55c.12-.47.22-.89.3-1.27s.14-.72.19-1a6.52,6.52,0,0,0,.06-.85v-.17c0-.06,0-.14,0-.23a2.47,2.47,0,0,0-.55.14c-.29.09-.62.21-1,.35s-.79.32-1.21.5-.82.38-1.18.57l-.72.37c-.19.09-.36.17-.5.22a2.69,2.69,0,0,1-.38.12,2.19,2.19,0,0,1-.36,0,.85.85,0,0,1-.66-.3,1.06,1.06,0,0,1-.28-.77,1.68,1.68,0,0,1,.06-.47.86.86,0,0,1,.17-.36,1.51,1.51,0,0,1,.31-.31c.14-.09.3-.19.49-.29a27.15,27.15,0,0,1,6.31-2.38,27.47,27.47,0,0,1,6.42-.76h.61l.74,0c.25,0,.49.05.73.09a6.27,6.27,0,0,1,.63.13,1,1,0,0,1,.49.36.92.92,0,0,1,.21.58,2.59,2.59,0,0,1,0,.48,1.13,1.13,0,0,1-.16.41.84.84,0,0,1-.29.27.81.81,0,0,1-.43.11l-1-.13a8.88,8.88,0,0,0-1.15-.07c-.78,0-1.55,0-2.32.06a13.22,13.22,0,0,0-2.36.32.16.16,0,0,0-.08.13q0,.11,0,.27c0,.44-.06.83-.11,1.17s-.12.67-.2,1-.2.7-.32,1.09-.27.86-.43,1.41-.36,1.2-.57,2c-.14.48-.29,1-.44,1.62l3.81-1.45,1.4-.54L35,23V11.39Zm18.51,16c0,.07,0,.12,0,.17a.67.67,0,0,1-.18.3,1.33,1.33,0,0,1-.3.23,1.38,1.38,0,0,1-.36.15,1.1,1.1,0,0,1-.33.06.47.47,0,0,1-.28-.07,1,1,0,0,1-.24-.26.56.56,0,0,1-.1-.18.57.57,0,0,1,0-.12.76.76,0,0,1,0-.15l0-.13a1.93,1.93,0,0,1,.14-.4,1.16,1.16,0,0,1,.36-.42,2.23,2.23,0,0,1,.3-.13l.26,0a.27.27,0,0,1,.16,0l.14.12a.8.8,0,0,1,.15.17.29.29,0,0,1,.26.14.85.85,0,0,1,0,.3A.78.78,0,0,1,24.56,25.78Z" transform="translate(-1.11 -3.24)"/><polygon class="cls-2" points="4.6 6.63 4.6 30.91 2.89 31.56 2.89 31.56 2.89 31.56 2.87 30.95 2.86 30.54 2.86 30.51 2.85 30.43 2.33 8.61 4.6 6.63"/><polygon class="cls-3" points="2.89 31.56 2.89 31.56 2.88 31.57 2.87 30.95 2.86 30.54 2.87 30.95 2.89 31.56"/><polygon class="cls-1" points="2.63 31.68 1.07 32.28 1.07 32.15 1.04 31.55 1 30.85 1 30.79 1 30.76 0 8.02 2.33 8.61 2.62 31.04 2.62 31.04 2.63 31.57 2.63 31.68"/><polygon class="cls-4" points="1.04 31.55 1.07 32.15 1.06 32.15 1.04 31.55 1.02 31.18 1 30.85 1.04 31.55"/><polygon class="cls-4" points="2.63 31.57 2.63 31.57 2.62 31.04 2.62 31.04 2.63 31.57"/><path class="cls-5" d="M15.17,12.44c0,.36-.58.65-1.3.65s-1.3-.29-1.3-.65.37-.52.89-.61a2.73,2.73,0,0,1,.41,0,2.26,2.26,0,0,1,.67.09C14.92,12,15.17,12.21,15.17,12.44Z" transform="translate(-1.11 -3.24)"/><path class="cls-5" d="M28.29,13.4c0,.36-.58.65-1.3.65s-1.3-.29-1.3-.65.35-.51.85-.6a2.15,2.15,0,0,1,.45,0,2.5,2.5,0,0,1,.4,0C27.92,12.87,28.29,13.12,28.29,13.4Z" transform="translate(-1.11 -3.24)"/><path class="cls-5" d="M27.39,12.79a2.5,2.5,0,0,0-.4,0,2.15,2.15,0,0,0-.45,0,18.22,18.22,0,0,0-.72-3s0,0,0-.05-.11-.3-.18-.46a3.76,3.76,0,0,0-.16-.37.36.36,0,0,0,0-.09,1.17,1.17,0,0,0-.05-.11,7.8,7.8,0,0,0-3.17-3.36A4.62,4.62,0,0,0,21,4.82h0c-1.24-.34-2.71-.06-4.39,1.58a9.12,9.12,0,0,0-2.05,5.5,2.26,2.26,0,0,0-.67-.09,2.73,2.73,0,0,0-.41,0c.07-.83.49-5,2.7-6.93,2.45-2.13,4.57-1.6,4.57-1.6s6.15.81,6.65,9.46Z" transform="translate(-1.11 -3.24)"/><path class="cls-5" d="M14.54,11.89v.24L13.45,12s0-.06,0-.15a2.73,2.73,0,0,1,.41,0A2.26,2.26,0,0,1,14.54,11.89Z" transform="translate(-1.11 -3.24)"/><path class="cls-5" d="M25.81,9.76c-.06-.15-.11-.31-.18-.46C25.7,9.46,25.76,9.62,25.81,9.76Z" transform="translate(-1.11 -3.24)"/><path class="cls-5" d="M27.38,13.24H26.6s0-.16-.06-.44a2.15,2.15,0,0,1,.45,0,2.5,2.5,0,0,1,.4,0C27.42,12.9,27.51,13.24,27.38,13.24Z" transform="translate(-1.11 -3.24)"/><path class="cls-5" d="M17.21,29.77c0,.11-.06.23-.1.34-.39,1.39-.74,2.76-1.05,4.13a1.15,1.15,0,0,0,0,.52,1.61,1.61,0,0,0,.19.49,1.24,1.24,0,0,0,.35.37.81.81,0,0,0,.46.14,1.44,1.44,0,0,0,.77-.19c.22-.12.35-.25.38-.39.06-.43.13-.86.21-1.3s.18-.94.32-1.49L19.3,30l.29-1.14Z" transform="translate(-1.11 -3.24)"/><path class="cls-5" d="M23.43,28.61a.43.43,0,0,0-.16-.14.85.85,0,0,0-.22-.09l-.26,0a1,1,0,0,0-.31.05.91.91,0,0,0-.22.13.58.58,0,0,0-.13.15l-.06.1c-.11.45-.22.9-.35,1.37s-.25.93-.37,1.37-.24.87-.35,1.27-.2.76-.28,1.06l-.22.91a.25.25,0,0,0,0,.07v.07a1,1,0,0,0,.05.28,1,1,0,0,0,.17.27.75.75,0,0,0,.26.21.73.73,0,0,0,.36.08.36.36,0,0,0,.19,0,.37.37,0,0,0,.13-.12.55.55,0,0,0,.09-.14.73.73,0,0,1,.05-.12c.23-.93.48-1.87.73-2.8l.75-2.78.22-.83v-.1A.46.46,0,0,0,23.43,28.61Z" transform="translate(-1.11 -3.24)"/><path class="cls-5" d="M30.32,28.88a1.5,1.5,0,0,0-.59.13,3.42,3.42,0,0,0-.64.35,7.32,7.32,0,0,0-.69.49l-.68.57-.33.27a1.3,1.3,0,0,1-.31.19,3.45,3.45,0,0,0-.23.47c-.08.19-.16.41-.24.64s-.15.47-.22.71-.13.47-.18.67l-.06.32c0,.11,0,.22,0,.34s-.05.24-.08.37-.06.29-.1.46a.52.52,0,0,1-.13.23.49.49,0,0,1-.18.14.64.64,0,0,1-.18.06H25.3a.78.78,0,0,1-.48-.14.64.64,0,0,1-.19-.55,1.93,1.93,0,0,1,0-.23.85.85,0,0,1,.05-.26c.11-.5.22-.94.33-1.34s.21-.76.32-1.1.22-.66.33-.95.23-.61.35-.91.24-.62.36-.94.27-.69.41-1.08a.44.44,0,0,1,.25-.23,1,1,0,0,1,.42-.09.84.84,0,0,1,.49.14.41.41,0,0,1,.19.38.32.32,0,0,1,0,.08.78.78,0,0,1-.05.14l-.34.81c.21-.17.44-.35.68-.52a8.09,8.09,0,0,1,.73-.46,5,5,0,0,1,.75-.34,2.46,2.46,0,0,1,.75-.13,1.45,1.45,0,0,1,1.59,1.65,4.34,4.34,0,0,1-.17,1.1q-.16.62-.42,1.32c-.17.47-.35,1-.55,1.49s-.37,1-.54,1.58a3.42,3.42,0,0,1-.14.36.76.76,0,0,1-.18.24.7.7,0,0,1-.24.13,1.06,1.06,0,0,1-.33,0,.64.64,0,0,1-.42-.11.5.5,0,0,1-.12-.37,2.34,2.34,0,0,1,.07-.53,6.86,6.86,0,0,1,.19-.7c.08-.25.17-.52.28-.8s.22-.58.34-.88l.3-.72c.09-.23.18-.47.25-.69a6.44,6.44,0,0,0,.19-.64,3,3,0,0,0,.07-.56.89.89,0,0,0-.11-.43A.41.41,0,0,0,30.32,28.88Z" transform="translate(-1.11 -3.24)"/><path class="cls-5" d="M33.52,32.61a6.82,6.82,0,0,1,.27-.84,6.49,6.49,0,0,1,.41-.84,7,7,0,0,1,.6-.81,5.79,5.79,0,0,1,.8-.75,7.85,7.85,0,0,1,.66-.47,5.49,5.49,0,0,1,.71-.39,5.2,5.2,0,0,1,.72-.26,3,3,0,0,1,.71-.1,2.09,2.09,0,0,1,.46.05,2.4,2.4,0,0,1,.38.12c0-.18.19-.67.41-1.47s.51-1.9.84-3.32a.79.79,0,0,1,.24-.35A.5.5,0,0,1,41.1,23a1.56,1.56,0,0,1,.31,0,.85.85,0,0,1,.26.11.67.67,0,0,1,.19.22.82.82,0,0,1,.07.37L40.36,30a5.14,5.14,0,0,0-.13.71c0,.3-.08.62-.12,1s-.06.66-.09,1,0,.6,0,.83a3.63,3.63,0,0,1-.1.87,1.74,1.74,0,0,1-.1.32.57.57,0,0,1-.13.21.51.51,0,0,1-.22.11,1,1,0,0,1-.32,0,1,1,0,0,1-.35-.05.38.38,0,0,1-.19-.13.36.36,0,0,1-.07-.18,1.64,1.64,0,0,1,0-.23c0-.08,0-.16,0-.25a.72.72,0,0,0-.07-.25,3,3,0,0,1-.26.17l-.33.21-.32.19-.21.13-.41.21a3.14,3.14,0,0,1-.49.21,3.08,3.08,0,0,1-.54.16,2.25,2.25,0,0,1-.58.07,2,2,0,0,1-.68-.12,1.71,1.71,0,0,1-.59-.36,1.58,1.58,0,0,1-.42-.61,2.33,2.33,0,0,1-.16-.87c0-.12,0-.24,0-.36A3.88,3.88,0,0,1,33.52,32.61Zm1.35-.06a1.74,1.74,0,0,0-.06.45,2.77,2.77,0,0,0,0,.42.93.93,0,0,0,.15.35.73.73,0,0,0,.28.24,1,1,0,0,0,.46.09,1.05,1.05,0,0,0,.33-.06,2.6,2.6,0,0,0,.36-.13l.32-.17.27-.16.55-.39a3.47,3.47,0,0,0,.45-.4,2.47,2.47,0,0,0,.36-.49,2.67,2.67,0,0,0,.24-.62l.14-.57c0-.17.07-.34.1-.5s.06-.33.09-.51.05-.36.08-.56a.24.24,0,0,0-.11-.09.34.34,0,0,0-.2-.05,2.59,2.59,0,0,0-.68.11,4.36,4.36,0,0,0-.77.3,5.67,5.67,0,0,0-.77.47,5.33,5.33,0,0,0-.71.63,4.66,4.66,0,0,0-.56.76A3.17,3.17,0,0,0,34.87,32.55Z" transform="translate(-1.11 -3.24)"/><path class="cls-5" d="M46.12,35a4,4,0,0,1,.05-.54,4.3,4.3,0,0,0,.06-.79l-.57.45c-.21.17-.43.33-.65.49a3.87,3.87,0,0,1-.67.39,1.36,1.36,0,0,1-.62.16,1.31,1.31,0,0,1-.44-.07,1.21,1.21,0,0,1-.36-.18,2.24,2.24,0,0,1-.6-.66,1.55,1.55,0,0,1-.18-.76,2.93,2.93,0,0,1,0-.41c0-.14.06-.3.11-.48a6.93,6.93,0,0,1,1-2.29,7.25,7.25,0,0,1,1.79-1.79,2.26,2.26,0,0,1,.83-.37,4.45,4.45,0,0,1,.81-.08l.41,0,.4.05.29-.05.24,0a1.07,1.07,0,0,1,.39.06.79.79,0,0,1,.25.17.72.72,0,0,1,.14.24,1.35,1.35,0,0,1,0,.29,1.21,1.21,0,0,1-.06.38c0,.13-.09.25-.13.38l-1,4.11c0,.22,0,.43-.05.61a2.93,2.93,0,0,1-.1.53l-.06.17a.56.56,0,0,1-.11.2.61.61,0,0,1-.19.17.57.57,0,0,1-.31.07,1.87,1.87,0,0,1-.38,0,.61.61,0,0,1-.23-.09.28.28,0,0,1-.1-.14A1,1,0,0,1,46.12,35Zm-2.59-2.36c0,.08,0,.18-.07.32a2.69,2.69,0,0,0,0,.4,1.12,1.12,0,0,0,.06.38.26.26,0,0,0,.27.17,1.28,1.28,0,0,0,.61-.15,3.06,3.06,0,0,0,.54-.34c.22-.19.45-.39.68-.62a8.94,8.94,0,0,0,.66-.71,7.67,7.67,0,0,0,.54-.77,3,3,0,0,0,.35-.78,4.88,4.88,0,0,0,.11-.53c0-.19,0-.37,0-.53a.53.53,0,0,0,0-.2.18.18,0,0,0-.18-.09,2.15,2.15,0,0,0-.77.15,3.51,3.51,0,0,0-.74.39,4.71,4.71,0,0,0-.68.59,5.1,5.1,0,0,0-.59.73,5.78,5.78,0,0,0-.46.79A4.87,4.87,0,0,0,43.53,32.59Z" transform="translate(-1.11 -3.24)"/><polygon class="cls-3" points="2.89 31.56 2.88 31.57 2.89 31.56 2.89 31.56"/></svg>